<svg xmlns="http://www.w3.org/2000/svg" width="760" height="650" viewBox="0 0 760 650">
  <style>
    text { font-family: Arial, sans-serif; fill: #252525 }
    .muted { fill: #6b7280 }
    .head { font-size: 26px; font-weight: 700 }
    .label { font-size: 14px; font-weight: 700; fill: #526070 }
    .cell { font-size: 15px }
  </style>
  <rect width="760" height="650" rx="18" fill="#fff" stroke="#e5e7eb"/>
  <text x="22" y="48" class="head">Alertes météo</text>
  <text x="22" y="82" class="muted" font-size="17">Alertes reçues de Tomorrow.io (canicule, gel, pluie intense, etc.)</text>
  <rect x="22" y="105" width="255" height="42" rx="6" fill="#fff" stroke="#cbd5e1"/>
  <text x="36" y="132" font-size="17">— Toutes les forêts —</text>
  <rect x="292" y="116" width="18" height="18" rx="3" fill="#fff" stroke="#cbd5e1"/>
  <text x="320" y="132" font-size="16">Non acquittées uniquement</text>
  <line x1="22" y1="195" x2="738" y2="195" stroke="#d1d5db"/>
  <text x="28" y="184" class="label">DATE</text><text x="145" y="184" class="label">TYPE</text>
  <text x="285" y="184" class="label">SÉVÉRITÉ</text><text x="390" y="184" class="label">ZONE</text>
  <text x="495" y="184" class="label">STATUT</text><text x="610" y="184" class="label">ACTION</text>
  <g class="cell">
    <text x="28" y="230">12/06/2026</text><text x="28" y="252">18:00:00</text><text x="145" y="240">🌧 heavy_rain</text>
    <rect x="280" y="216" width="84" height="28" rx="6" fill="#dc3545"/><text x="291" y="235" fill="#fff" font-weight="700">CRITIQUE</text>
    <text x="390" y="230">48.8566,</text><text x="390" y="252">2.3522</text>
    <rect x="490" y="216" width="84" height="28" rx="6" fill="#198754"/><text x="503" y="235" fill="#fff" font-weight="700">Acquitté</text>
    <text x="610" y="230" class="muted">13/06/2026</text><text x="610" y="252" class="muted">13:07:54</text>
    <line x1="22" y1="270" x2="738" y2="270" stroke="#e5e7eb"/>
    <text x="28" y="305">12/06/2026</text><text x="28" y="327">18:00:00</text><text x="145" y="315">🌧 heavy_rain</text>
    <rect x="280" y="291" width="84" height="28" rx="6" fill="#dc3545"/><text x="291" y="310" fill="#fff" font-weight="700">CRITIQUE</text>
    <text x="390" y="305">48.8566,</text><text x="390" y="327">2.3522</text>
    <rect x="490" y="291" width="90" height="28" rx="6" fill="#64748b"/><text x="501" y="310" fill="#fff" font-weight="700">En attente</text>
    <rect x="610" y="282" width="105" height="48" rx="6" fill="#fff" stroke="#198754"/><text x="633" y="312" fill="#198754">✓ Acquitter</text>
    <line x1="22" y1="345" x2="738" y2="345" stroke="#e5e7eb"/>
    <text x="28" y="380">07/04/2026</text><text x="28" y="402">16:00:00</text><text x="145" y="390">🔥 heatwave</text>
    <rect x="280" y="366" width="84" height="28" rx="6" fill="#dc3545"/><text x="291" y="385" fill="#fff" font-weight="700">CRITIQUE</text>
    <text x="390" y="380">48.8566,</text><text x="390" y="402">2.3522</text>
    <rect x="490" y="366" width="84" height="28" rx="6" fill="#198754"/><text x="503" y="385" fill="#fff" font-weight="700">Acquitté</text>
    <text x="610" y="380" class="muted">13/05/2026</text><text x="610" y="402" class="muted">20:13:56</text>
  </g>
</svg>
